<svg width="17" height="20" viewBox="0 0 17 20" fill="none" xmlns="http://www.w3.org/2000/svg">
<g id="Calendar">
<path id="Calendar_2" fill-rule="evenodd" clip-rule="evenodd" d="M12.4372 0.735076V1.76997C15.2189 2.06186 16.6419 3.72477 16.6419 6.71446V14.9848C16.6419 18.3106 14.8893 20 11.4403 20H5.20161C1.75263 20 0 18.3106 0 14.9848V6.71446C0 4.72428 0.627087 3.30019 1.91342 2.46874C2.11619 2.31904 2.37853 2.30859 2.59061 2.44176C2.80269 2.57494 2.92793 2.82876 2.9139 3.09698C2.89987 3.3652 2.749 3.60155 2.52443 3.70708C1.67223 4.25548 1.27025 5.21077 1.27025 6.71446V6.97981H13C13.3508 6.97981 13.6351 7.29266 13.6351 7.67859C13.6351 8.06451 13.3508 8.37736 13 8.37736H1.27025V14.9848C1.27025 17.5233 2.41188 18.5759 5.20161 18.5936H11.4403C14.1899 18.5936 15.3636 17.5145 15.3636 14.9759V6.70561C15.3636 4.4943 14.4712 3.42403 12.4372 3.16752V3.83975C12.3903 4.19806 12.1052 4.45964 11.7764 4.44599C11.4476 4.43234 11.1812 4.14786 11.1589 3.78668V0.673159C11.1652 0.486183 11.2393 0.309767 11.3647 0.183413C11.4901 0.0570589 11.6564 -0.00867809 11.8262 0.00092119C12.1764 0.0246108 12.4466 0.349232 12.4372 0.735076ZM5.27806 4.29279C5.1572 4.42409 4.99358 4.49667 4.82375 4.4943C4.47613 4.48465 4.20019 4.16923 4.2047 3.78668V0.735076C4.24125 0.377086 4.51642 0.106447 4.84385 0.106447C5.17128 0.106447 5.44644 0.377086 5.483 0.735076V1.69921H9.11689C9.46766 1.69921 9.75201 2.01206 9.75201 2.39798C9.75201 2.7839 9.46766 3.09675 9.11689 3.09675H5.46692V3.79553C5.46693 3.9824 5.39891 4.16149 5.27806 4.29279ZM12.196 10.6152C11.752 10.6152 11.3921 11.0112 11.3921 11.4997C11.3921 11.9882 11.752 12.3843 12.196 12.3843C12.6401 12.3843 13 11.9882 13 11.4997C13 11.2636 12.9142 11.0373 12.7617 10.8711C12.6092 10.705 12.4026 10.6128 12.188 10.6152H12.196ZM7.53309 11.4997C7.53309 11.0112 7.89303 10.6152 8.33705 10.6152C8.78106 10.6152 9.141 11.0112 9.141 11.4997C9.141 11.9882 8.78106 12.3843 8.33705 12.3843C7.89303 12.3843 7.53309 11.9882 7.53309 11.4997ZM4.48609 10.6152C4.04207 10.6152 3.68213 11.0112 3.68213 11.4997C3.68213 11.9882 4.04207 12.3843 4.48609 12.3843C4.9301 12.3843 5.29005 11.9882 5.29005 11.4997C5.29006 11.2636 5.20425 11.0373 5.05174 10.8711C4.89922 10.705 4.69266 10.6128 4.47805 10.6152H4.48609ZM11.3921 15.082C11.3921 14.5935 11.752 14.1975 12.196 14.1975H12.188C12.4026 14.1952 12.6092 14.2873 12.7617 14.4534C12.9142 14.6196 13 14.8459 13 15.082C13 15.5706 12.6401 15.9666 12.196 15.9666C11.752 15.9666 11.3921 15.5706 11.3921 15.082ZM8.33705 14.1975C7.89303 14.1975 7.53309 14.5935 7.53309 15.082C7.53309 15.5706 7.89303 15.9666 8.33705 15.9666C8.78106 15.9666 9.141 15.5706 9.141 15.082C9.141 14.5935 8.78106 14.1975 8.33705 14.1975ZM3.68213 15.082C3.68213 14.5935 4.04207 14.1975 4.48609 14.1975H4.47805C4.69266 14.1952 4.89922 14.2873 5.05174 14.4534C5.20425 14.6196 5.29006 14.8459 5.29005 15.082C5.29005 15.5706 4.9301 15.9666 4.48609 15.9666C4.04207 15.9666 3.68213 15.5706 3.68213 15.082Z" fill="#616164"/>
</g>
</svg>
