<svg width="23" height="21" viewBox="0 0 23 21" fill="none" xmlns="http://www.w3.org/2000/svg">
<g id="&#229;&#156;&#134;&#232;&#167;&#146;-&#232;&#180;&#173;&#231;&#137;&#169;&#232;&#189;&#166;1-&#233;&#157;&#162;">
<g id="&#229;&#156;&#134;&#232;&#167;&#146;-&#231;&#188;&#150;&#232;&#190;&#145;&#232;&#181;&#132;&#230;&#150;&#153;-&#233;&#157;&#162;">
<g id="Group 2">
<path id="Combined Shape" fill-rule="evenodd" clip-rule="evenodd" d="M0.660156 1.32877C0.660156 1.69697 0.95863 1.99545 1.32682 1.99545H3.184C3.52544 1.99545 3.81169 2.25342 3.84707 2.59302L5.12741 14.8806C5.23356 15.8994 6.0923 16.6733 7.11662 16.6733H19.9529C20.321 16.6733 20.6195 16.3749 20.6195 16.0067C20.6195 15.6385 20.321 15.34 19.9529 15.34H7.11662C6.77518 15.34 6.48893 15.082 6.45355 14.7424L6.36956 13.9364L19.2437 12.73C19.6514 12.6918 19.9945 12.4089 20.1099 12.0161L22.2835 4.61516C22.4716 3.97476 21.9915 3.33337 21.324 3.33337H5.26475L5.17321 2.45483C5.06706 1.43603 4.20831 0.662109 3.184 0.662109H1.32682C0.95863 0.662109 0.660156 0.960587 0.660156 1.32877Z" fill="white"/>
<path id="Oval" fill-rule="evenodd" clip-rule="evenodd" d="M7.99348 20.6667C8.72985 20.6667 9.3268 20.0697 9.3268 19.3333C9.3268 18.597 8.72985 18 7.99348 18C7.2571 18 6.66016 18.597 6.66016 19.3333C6.66016 20.0697 7.2571 20.6667 7.99348 20.6667Z" fill="white"/>
<path id="Oval Copy" fill-rule="evenodd" clip-rule="evenodd" d="M17.3255 20.6667C18.0619 20.6667 18.6588 20.0697 18.6588 19.3333C18.6588 18.597 18.0619 18 17.3255 18C16.5891 18 15.9922 18.597 15.9922 19.3333C15.9922 20.0697 16.5891 20.6667 17.3255 20.6667Z" fill="white"/>
</g>
</g>
</g>
</svg>
